<svg width="161" height="159" viewBox="0 0 161 159" fill="none" xmlns="http://www.w3.org/2000/svg">
<g clip-path="url(#clip0_1_2)">
<path d="M29.16 7.02H23.12C14.7805 7.02 8.02 13.7805 8.02 22.12V28.16C8.02 36.4995 14.7805 43.26 23.12 43.26H29.16C37.4995 43.26 44.26 36.4995 44.26 28.16V22.12C44.26 13.7805 37.4995 7.02 29.16 7.02Z" stroke="black" stroke-width="6"/>
<path d="M29.16 16.08H23.12C19.7842 16.08 17.08 18.7842 17.08 22.12V28.16C17.08 31.4958 19.7842 34.2 23.12 34.2H29.16C32.4958 34.2 35.2 31.4958 35.2 28.16V22.12C35.2 18.7842 32.4958 16.08 29.16 16.08Z" fill="black"/>
<path d="M137.88 7.02H131.84C123.5 7.02 116.74 13.7805 116.74 22.12V28.16C116.74 36.4995 123.5 43.26 131.84 43.26H137.88C146.219 43.26 152.98 36.4995 152.98 28.16V22.12C152.98 13.7805 146.219 7.02 137.88 7.02Z" stroke="black" stroke-width="6"/>
<path d="M137.88 16.08H131.84C128.504 16.08 125.8 18.7842 125.8 22.12V28.16C125.8 31.4958 128.504 34.2 131.84 34.2H137.88C141.216 34.2 143.92 31.4958 143.92 28.16V22.12C143.92 18.7842 141.216 16.08 137.88 16.08Z" fill="black"/>
<path d="M29.16 115.74H23.12C14.7805 115.74 8.02 122.5 8.02 130.84V136.88C8.02 145.219 14.7805 151.98 23.12 151.98H29.16C37.4995 151.98 44.26 145.219 44.26 136.88V130.84C44.26 122.5 37.4995 115.74 29.16 115.74Z" stroke="black" stroke-width="6"/>
<path d="M29.16 124.8H23.12C19.7842 124.8 17.08 127.504 17.08 130.84V136.88C17.08 140.216 19.7842 142.92 23.12 142.92H29.16C32.4958 142.92 35.2 140.216 35.2 136.88V130.84C35.2 127.504 32.4958 124.8 29.16 124.8Z" fill="black"/>
<path d="M58.756 7.02C58.756 5.68568 57.6743 4.604 56.34 4.604C55.0057 4.604 53.924 5.68568 53.924 7.02C53.924 8.35432 55.0057 9.436 56.34 9.436C57.6743 9.436 58.756 8.35432 58.756 7.02Z" fill="black"/>
<path d="M64.796 7.02C64.796 5.68568 63.7143 4.604 62.38 4.604C61.0457 4.604 59.964 5.68568 59.964 7.02C59.964 8.35432 61.0457 9.436 62.38 9.436C63.7143 9.436 64.796 8.35432 64.796 7.02Z" fill="black"/>
<path d="M88.956 7.02C88.956 5.68568 87.8743 4.604 86.54 4.604C85.2057 4.604 84.124 5.68568 84.124 7.02C84.124 8.35432 85.2057 9.436 86.54 9.436C87.8743 9.436 88.956 8.35432 88.956 7.02Z" fill="black"/>
<path d="M107.076 7.02C107.076 5.68568 105.994 4.604 104.66 4.604C103.326 4.604 102.244 5.68568 102.244 7.02C102.244 8.35432 103.326 9.436 104.66 9.436C105.994 9.436 107.076 8.35432 107.076 7.02Z" fill="black"/>
<path d="M88.956 13.06C88.956 11.7257 87.8743 10.644 86.54 10.644C85.2057 10.644 84.124 11.7257 84.124 13.06C84.124 14.3943 85.2057 15.476 86.54 15.476C87.8743 15.476 88.956 14.3943 88.956 13.06Z" fill="black"/>
<path d="M107.076 13.06C107.076 11.7257 105.994 10.644 104.66 10.644C103.326 10.644 102.244 11.7257 102.244 13.06C102.244 14.3943 103.326 15.476 104.66 15.476C105.994 15.476 107.076 14.3943 107.076 13.06Z" fill="black"/>
<path d="M58.756 19.1C58.756 17.7657 57.6743 16.684 56.34 16.684C55.0057 16.684 53.924 17.7657 53.924 19.1C53.924 20.4343 55.0057 21.516 56.34 21.516C57.6743 21.516 58.756 20.4343 58.756 19.1Z" fill="black"/>
<path d="M76.876 19.1C76.876 17.7657 75.7943 16.684 74.46 16.684C73.1257 16.684 72.044 17.7657 72.044 19.1C72.044 20.4343 73.1257 21.516 74.46 21.516C75.7943 21.516 76.876 20.4343 76.876 19.1Z" fill="black"/>
<path d="M82.916 19.1C82.916 17.7657 81.8343 16.684 80.5 16.684C79.1657 16.684 78.084 17.7657 78.084 19.1C78.084 20.4343 79.1657 21.516 80.5 21.516C81.8343 21.516 82.916 20.4343 82.916 19.1Z" fill="black"/>
<path d="M88.956 19.1C88.956 17.7657 87.8743 16.684 86.54 16.684C85.2057 16.684 84.124 17.7657 84.124 19.1C84.124 20.4343 85.2057 21.516 86.54 21.516C87.8743 21.516 88.956 20.4343 88.956 19.1Z" fill="black"/>
<path d="M94.996 19.1C94.996 17.7657 93.9143 16.684 92.58 16.684C91.2457 16.684 90.164 17.7657 90.164 19.1C90.164 20.4343 91.2457 21.516 92.58 21.516C93.9143 21.516 94.996 20.4343 94.996 19.1Z" fill="black"/>
<path d="M101.036 19.1C101.036 17.7657 99.9543 16.684 98.62 16.684C97.2857 16.684 96.204 17.7657 96.204 19.1C96.204 20.4343 97.2857 21.516 98.62 21.516C99.9543 21.516 101.036 20.4343 101.036 19.1Z" fill="black"/>
<path d="M107.076 19.1C107.076 17.7657 105.994 16.684 104.66 16.684C103.326 16.684 102.244 17.7657 102.244 19.1C102.244 20.4343 103.326 21.516 104.66 21.516C105.994 21.516 107.076 20.4343 107.076 19.1Z" fill="black"/>
<path d="M58.756 25.14C58.756 23.8057 57.6743 22.724 56.34 22.724C55.0057 22.724 53.924 23.8057 53.924 25.14C53.924 26.4743 55.0057 27.556 56.34 27.556C57.6743 27.556 58.756 26.4743 58.756 25.14Z" fill="black"/>
<path d="M64.796 25.14C64.796 23.8057 63.7143 22.724 62.38 22.724C61.0457 22.724 59.964 23.8057 59.964 25.14C59.964 26.4743 61.0457 27.556 62.38 27.556C63.7143 27.556 64.796 26.4743 64.796 25.14Z" fill="black"/>
<path d="M76.876 25.14C76.876 23.8057 75.7943 22.724 74.46 22.724C73.1257 22.724 72.044 23.8057 72.044 25.14C72.044 26.4743 73.1257 27.556 74.46 27.556C75.7943 27.556 76.876 26.4743 76.876 25.14Z" fill="black"/>
<path d="M82.916 25.14C82.916 23.8057 81.8343 22.724 80.5 22.724C79.1657 22.724 78.084 23.8057 78.084 25.14C78.084 26.4743 79.1657 27.556 80.5 27.556C81.8343 27.556 82.916 26.4743 82.916 25.14Z" fill="black"/>
<path d="M88.956 25.14C88.956 23.8057 87.8743 22.724 86.54 22.724C85.2057 22.724 84.124 23.8057 84.124 25.14C84.124 26.4743 85.2057 27.556 86.54 27.556C87.8743 27.556 88.956 26.4743 88.956 25.14Z" fill="black"/>
<path d="M94.996 25.14C94.996 23.8057 93.9143 22.724 92.58 22.724C91.2457 22.724 90.164 23.8057 90.164 25.14C90.164 26.4743 91.2457 27.556 92.58 27.556C93.9143 27.556 94.996 26.4743 94.996 25.14Z" fill="black"/>
<path d="M101.036 25.14C101.036 23.8057 99.9543 22.724 98.62 22.724C97.2857 22.724 96.204 23.8057 96.204 25.14C96.204 26.4743 97.2857 27.556 98.62 27.556C99.9543 27.556 101.036 26.4743 101.036 25.14Z" fill="black"/>
<path d="M58.756 31.18C58.756 29.8457 57.6743 28.764 56.34 28.764C55.0057 28.764 53.924 29.8457 53.924 31.18C53.924 32.5143 55.0057 33.596 56.34 33.596C57.6743 33.596 58.756 32.5143 58.756 31.18Z" fill="black"/>
<path d="M64.796 31.18C64.796 29.8457 63.7143 28.764 62.38 28.764C61.0457 28.764 59.964 29.8457 59.964 31.18C59.964 32.5143 61.0457 33.596 62.38 33.596C63.7143 33.596 64.796 32.5143 64.796 31.18Z" fill="black"/>
<path d="M70.836 31.18C70.836 29.8457 69.7543 28.764 68.42 28.764C67.0857 28.764 66.004 29.8457 66.004 31.18C66.004 32.5143 67.0857 33.596 68.42 33.596C69.7543 33.596 70.836 32.5143 70.836 31.18Z" fill="black"/>
<path d="M76.876 31.18C76.876 29.8457 75.7943 28.764 74.46 28.764C73.1257 28.764 72.044 29.8457 72.044 31.18C72.044 32.5143 73.1257 33.596 74.46 33.596C75.7943 33.596 76.876 32.5143 76.876 31.18Z" fill="black"/>
<path d="M88.956 31.18C88.956 29.8457 87.8743 28.764 86.54 28.764C85.2057 28.764 84.124 29.8457 84.124 31.18C84.124 32.5143 85.2057 33.596 86.54 33.596C87.8743 33.596 88.956 32.5143 88.956 31.18Z" fill="black"/>
<path d="M94.996 31.18C94.996 29.8457 93.9143 28.764 92.58 28.764C91.2457 28.764 90.164 29.8457 90.164 31.18C90.164 32.5143 91.2457 33.596 92.58 33.596C93.9143 33.596 94.996 32.5143 94.996 31.18Z" fill="black"/>
<path d="M101.036 31.18C101.036 29.8457 99.9543 28.764 98.62 28.764C97.2857 28.764 96.204 29.8457 96.204 31.18C96.204 32.5143 97.2857 33.596 98.62 33.596C99.9543 33.596 101.036 32.5143 101.036 31.18Z" fill="black"/>
<path d="M107.076 31.18C107.076 29.8457 105.994 28.764 104.66 28.764C103.326 28.764 102.244 29.8457 102.244 31.18C102.244 32.5143 103.326 33.596 104.66 33.596C105.994 33.596 107.076 32.5143 107.076 31.18Z" fill="black"/>
<path d="M64.796 37.22C64.796 35.8857 63.7143 34.804 62.38 34.804C61.0457 34.804 59.964 35.8857 59.964 37.22C59.964 38.5543 61.0457 39.636 62.38 39.636C63.7143 39.636 64.796 38.5543 64.796 37.22Z" fill="black"/>
<path d="M82.916 37.22C82.916 35.8857 81.8343 34.804 80.5 34.804C79.1657 34.804 78.084 35.8857 78.084 37.22C78.084 38.5543 79.1657 39.636 80.5 39.636C81.8343 39.636 82.916 38.5543 82.916 37.22Z" fill="black"/>
<path d="M88.956 37.22C88.956 35.8857 87.8743 34.804 86.54 34.804C85.2057 34.804 84.124 35.8857 84.124 37.22C84.124 38.5543 85.2057 39.636 86.54 39.636C87.8743 39.636 88.956 38.5543 88.956 37.22Z" fill="black"/>
<path d="M94.996 37.22C94.996 35.8857 93.9143 34.804 92.58 34.804C91.2457 34.804 90.164 35.8857 90.164 37.22C90.164 38.5543 91.2457 39.636 92.58 39.636C93.9143 39.636 94.996 38.5543 94.996 37.22Z" fill="black"/>
<path d="M107.076 37.22C107.076 35.8857 105.994 34.804 104.66 34.804C103.326 34.804 102.244 35.8857 102.244 37.22C102.244 38.5543 103.326 39.636 104.66 39.636C105.994 39.636 107.076 38.5543 107.076 37.22Z" fill="black"/>
<path d="M58.756 43.26C58.756 41.9257 57.6743 40.844 56.34 40.844C55.0057 40.844 53.924 41.9257 53.924 43.26C53.924 44.5943 55.0057 45.676 56.34 45.676C57.6743 45.676 58.756 44.5943 58.756 43.26Z" fill="black"/>
<path d="M70.836 43.26C70.836 41.9257 69.7543 40.844 68.42 40.844C67.0857 40.844 66.004 41.9257 66.004 43.26C66.004 44.5943 67.0857 45.676 68.42 45.676C69.7543 45.676 70.836 44.5943 70.836 43.26Z" fill="black"/>
<path d="M82.916 43.26C82.916 41.9257 81.8343 40.844 80.5 40.844C79.1657 40.844 78.084 41.9257 78.084 43.26C78.084 44.5943 79.1657 45.676 80.5 45.676C81.8343 45.676 82.916 44.5943 82.916 43.26Z" fill="black"/>
<path d="M94.996 43.26C94.996 41.9257 93.9143 40.844 92.58 40.844C91.2457 40.844 90.164 41.9257 90.164 43.26C90.164 44.5943 91.2457 45.676 92.58 45.676C93.9143 45.676 94.996 44.5943 94.996 43.26Z" fill="black"/>
<path d="M107.076 43.26C107.076 41.9257 105.994 40.844 104.66 40.844C103.326 40.844 102.244 41.9257 102.244 43.26C102.244 44.5943 103.326 45.676 104.66 45.676C105.994 45.676 107.076 44.5943 107.076 43.26Z" fill="black"/>
<path d="M64.796 49.3C64.796 47.9657 63.7143 46.884 62.38 46.884C61.0457 46.884 59.964 47.9657 59.964 49.3C59.964 50.6343 61.0457 51.716 62.38 51.716C63.7143 51.716 64.796 50.6343 64.796 49.3Z" fill="black"/>
<path d="M82.916 49.3C82.916 47.9657 81.8343 46.884 80.5 46.884C79.1657 46.884 78.084 47.9657 78.084 49.3C78.084 50.6343 79.1657 51.716 80.5 51.716C81.8343 51.716 82.916 50.6343 82.916 49.3Z" fill="black"/>
<path d="M101.036 49.3C101.036 47.9657 99.9543 46.884 98.62 46.884C97.2857 46.884 96.204 47.9657 96.204 49.3C96.204 50.6343 97.2857 51.716 98.62 51.716C99.9543 51.716 101.036 50.6343 101.036 49.3Z" fill="black"/>
<path d="M107.076 49.3C107.076 47.9657 105.994 46.884 104.66 46.884C103.326 46.884 102.244 47.9657 102.244 49.3C102.244 50.6343 103.326 51.716 104.66 51.716C105.994 51.716 107.076 50.6343 107.076 49.3Z" fill="black"/>
<path d="M10.436 55.34C10.436 54.0057 9.35432 52.924 8.02 52.924C6.68568 52.924 5.604 54.0057 5.604 55.34C5.604 56.6743 6.68568 57.756 8.02 57.756C9.35432 57.756 10.436 56.6743 10.436 55.34Z" fill="black"/>
<path d="M16.476 55.34C16.476 54.0057 15.3943 52.924 14.06 52.924C12.7257 52.924 11.644 54.0057 11.644 55.34C11.644 56.6743 12.7257 57.756 14.06 57.756C15.3943 57.756 16.476 56.6743 16.476 55.34Z" fill="black"/>
<path d="M22.516 55.34C22.516 54.0057 21.4343 52.924 20.1 52.924C18.7657 52.924 17.684 54.0057 17.684 55.34C17.684 56.6743 18.7657 57.756 20.1 57.756C21.4343 57.756 22.516 56.6743 22.516 55.34Z" fill="black"/>
<path d="M28.556 55.34C28.556 54.0057 27.4743 52.924 26.14 52.924C24.8057 52.924 23.724 54.0057 23.724 55.34C23.724 56.6743 24.8057 57.756 26.14 57.756C27.4743 57.756 28.556 56.6743 28.556 55.34Z" fill="black"/>
<path d="M46.676 55.34C46.676 54.0057 45.5943 52.924 44.26 52.924C42.9257 52.924 41.844 54.0057 41.844 55.34C41.844 56.6743 42.9257 57.756 44.26 57.756C45.5943 57.756 46.676 56.6743 46.676 55.34Z" fill="black"/>
<path d="M58.756 55.34C58.756 54.0057 57.6743 52.924 56.34 52.924C55.0057 52.924 53.924 54.0057 53.924 55.34C53.924 56.6743 55.0057 57.756 56.34 57.756C57.6743 57.756 58.756 56.6743 58.756 55.34Z" fill="black"/>
<path d="M82.916 55.34C82.916 54.0057 81.8343 52.924 80.5 52.924C79.1657 52.924 78.084 54.0057 78.084 55.34C78.084 56.6743 79.1657 57.756 80.5 57.756C81.8343 57.756 82.916 56.6743 82.916 55.34Z" fill="black"/>
<path d="M101.036 55.34C101.036 54.0057 99.9543 52.924 98.62 52.924C97.2857 52.924 96.204 54.0057 96.204 55.34C96.204 56.6743 97.2857 57.756 98.62 57.756C99.9543 57.756 101.036 56.6743 101.036 55.34Z" fill="black"/>
<path d="M107.076 55.34C107.076 54.0057 105.994 52.924 104.66 52.924C103.326 52.924 102.244 54.0057 102.244 55.34C102.244 56.6743 103.326 57.756 104.66 57.756C105.994 57.756 107.076 56.6743 107.076 55.34Z" fill="black"/>
<path d="M113.116 55.34C113.116 54.0057 112.034 52.924 110.7 52.924C109.366 52.924 108.284 54.0057 108.284 55.34C108.284 56.6743 109.366 57.756 110.7 57.756C112.034 57.756 113.116 56.6743 113.116 55.34Z" fill="black"/>
<path d="M131.236 55.34C131.236 54.0057 130.154 52.924 128.82 52.924C127.486 52.924 126.404 54.0057 126.404 55.34C126.404 56.6743 127.486 57.756 128.82 57.756C130.154 57.756 131.236 56.6743 131.236 55.34Z" fill="black"/>
<path d="M137.276 55.34C137.276 54.0057 136.194 52.924 134.86 52.924C133.526 52.924 132.444 54.0057 132.444 55.34C132.444 56.6743 133.526 57.756 134.86 57.756C136.194 57.756 137.276 56.6743 137.276 55.34Z" fill="black"/>
<path d="M143.316 55.34C143.316 54.0057 142.234 52.924 140.9 52.924C139.566 52.924 138.484 54.0057 138.484 55.34C138.484 56.6743 139.566 57.756 140.9 57.756C142.234 57.756 143.316 56.6743 143.316 55.34Z" fill="black"/>
<path d="M155.396 55.34C155.396 54.0057 154.314 52.924 152.98 52.924C151.646 52.924 150.564 54.0057 150.564 55.34C150.564 56.6743 151.646 57.756 152.98 57.756C154.314 57.756 155.396 56.6743 155.396 55.34Z" fill="black"/>
<path d="M10.436 61.38C10.436 60.0457 9.35432 58.964 8.02 58.964C6.68568 58.964 5.604 60.0457 5.604 61.38C5.604 62.7143 6.68568 63.796 8.02 63.796C9.35432 63.796 10.436 62.7143 10.436 61.38Z" fill="black"/>
<path d="M28.556 61.38C28.556 60.0457 27.4743 58.964 26.14 58.964C24.8057 58.964 23.724 60.0457 23.724 61.38C23.724 62.7143 24.8057 63.796 26.14 63.796C27.4743 63.796 28.556 62.7143 28.556 61.38Z" fill="black"/>
<path d="M58.756 61.38C58.756 60.0457 57.6743 58.964 56.34 58.964C55.0057 58.964 53.924 60.0457 53.924 61.38C53.924 62.7143 55.0057 63.796 56.34 63.796C57.6743 63.796 58.756 62.7143 58.756 61.38Z" fill="black"/>
<path d="M64.796 61.38C64.796 60.0457 63.7143 58.964 62.38 58.964C61.0457 58.964 59.964 60.0457 59.964 61.38C59.964 62.7143 61.0457 63.796 62.38 63.796C63.7143 63.796 64.796 62.7143 64.796 61.38Z" fill="black"/>
<path d="M76.876 61.38C76.876 60.0457 75.7943 58.964 74.46 58.964C73.1257 58.964 72.044 60.0457 72.044 61.38C72.044 62.7143 73.1257 63.796 74.46 63.796C75.7943 63.796 76.876 62.7143 76.876 61.38Z" fill="black"/>
<path d="M82.916 61.38C82.916 60.0457 81.8343 58.964 80.5 58.964C79.1657 58.964 78.084 60.0457 78.084 61.38C78.084 62.7143 79.1657 63.796 80.5 63.796C81.8343 63.796 82.916 62.7143 82.916 61.38Z" fill="black"/>
<path d="M88.956 61.38C88.956 60.0457 87.8743 58.964 86.54 58.964C85.2057 58.964 84.124 60.0457 84.124 61.38C84.124 62.7143 85.2057 63.796 86.54 63.796C87.8743 63.796 88.956 62.7143 88.956 61.38Z" fill="black"/>
<path d="M125.196 61.38C125.196 60.0457 124.114 58.964 122.78 58.964C121.446 58.964 120.364 60.0457 120.364 61.38C120.364 62.7143 121.446 63.796 122.78 63.796C124.114 63.796 125.196 62.7143 125.196 61.38Z" fill="black"/>
<path d="M149.356 61.38C149.356 60.0457 148.274 58.964 146.94 58.964C145.606 58.964 144.524 60.0457 144.524 61.38C144.524 62.7143 145.606 63.796 146.94 63.796C148.274 63.796 149.356 62.7143 149.356 61.38Z" fill="black"/>
<path d="M16.476 67.42C16.476 66.0857 15.3943 65.004 14.06 65.004C12.7257 65.004 11.644 66.0857 11.644 67.42C11.644 68.7543 12.7257 69.836 14.06 69.836C15.3943 69.836 16.476 68.7543 16.476 67.42Z" fill="black"/>
<path d="M34.596 67.42C34.596 66.0857 33.5143 65.004 32.18 65.004C30.8457 65.004 29.764 66.0857 29.764 67.42C29.764 68.7543 30.8457 69.836 32.18 69.836C33.5143 69.836 34.596 68.7543 34.596 67.42Z" fill="black"/>
<path d="M40.636 67.42C40.636 66.0857 39.5543 65.004 38.22 65.004C36.8857 65.004 35.804 66.0857 35.804 67.42C35.804 68.7543 36.8857 69.836 38.22 69.836C39.5543 69.836 40.636 68.7543 40.636 67.42Z" fill="black"/>
<path d="M46.676 67.42C46.676 66.0857 45.5943 65.004 44.26 65.004C42.9257 65.004 41.844 66.0857 41.844 67.42C41.844 68.7543 42.9257 69.836 44.26 69.836C45.5943 69.836 46.676 68.7543 46.676 67.42Z" fill="black"/>
<path d="M76.876 67.42C76.876 66.0857 75.7943 65.004 74.46 65.004C73.1257 65.004 72.044 66.0857 72.044 67.42C72.044 68.7543 73.1257 69.836 74.46 69.836C75.7943 69.836 76.876 68.7543 76.876 67.42Z" fill="black"/>
<path d="M88.956 67.42C88.956 66.0857 87.8743 65.004 86.54 65.004C85.2057 65.004 84.124 66.0857 84.124 67.42C84.124 68.7543 85.2057 69.836 86.54 69.836C87.8743 69.836 88.956 68.7543 88.956 67.42Z" fill="black"/>
<path d="M113.116 67.42C113.116 66.0857 112.034 65.004 110.7 65.004C109.366 65.004 108.284 66.0857 108.284 67.42C108.284 68.7543 109.366 69.836 110.7 69.836C112.034 69.836 113.116 68.7543 113.116 67.42Z" fill="black"/>
<path d="M119.156 67.42C119.156 66.0857 118.074 65.004 116.74 65.004C115.406 65.004 114.324 66.0857 114.324 67.42C114.324 68.7543 115.406 69.836 116.74 69.836C118.074 69.836 119.156 68.7543 119.156 67.42Z" fill="black"/>
<path d="M131.236 67.42C131.236 66.0857 130.154 65.004 128.82 65.004C127.486 65.004 126.404 66.0857 126.404 67.42C126.404 68.7543 127.486 69.836 128.82 69.836C130.154 69.836 131.236 68.7543 131.236 67.42Z" fill="black"/>
<path d="M10.436 73.46C10.436 72.1257 9.35432 71.044 8.02 71.044C6.68568 71.044 5.604 72.1257 5.604 73.46C5.604 74.7943 6.68568 75.876 8.02 75.876C9.35432 75.876 10.436 74.7943 10.436 73.46Z" fill="black"/>
<path d="M22.516 73.46C22.516 72.1257 21.4343 71.044 20.1 71.044C18.7657 71.044 17.684 72.1257 17.684 73.46C17.684 74.7943 18.7657 75.876 20.1 75.876C21.4343 75.876 22.516 74.7943 22.516 73.46Z" fill="black"/>
<path d="M28.556 73.46C28.556 72.1257 27.4743 71.044 26.14 71.044C24.8057 71.044 23.724 72.1257 23.724 73.46C23.724 74.7943 24.8057 75.876 26.14 75.876C27.4743 75.876 28.556 74.7943 28.556 73.46Z" fill="black"/>
<path d="M34.596 73.46C34.596 72.1257 33.5143 71.044 32.18 71.044C30.8457 71.044 29.764 72.1257 29.764 73.46C29.764 74.7943 30.8457 75.876 32.18 75.876C33.5143 75.876 34.596 74.7943 34.596 73.46Z" fill="black"/>
<path d="M58.756 73.46C58.756 72.1257 57.6743 71.044 56.34 71.044C55.0057 71.044 53.924 72.1257 53.924 73.46C53.924 74.7943 55.0057 75.876 56.34 75.876C57.6743 75.876 58.756 74.7943 58.756 73.46Z" fill="black"/>
<path d="M76.876 73.46C76.876 72.1257 75.7943 71.044 74.46 71.044C73.1257 71.044 72.044 72.1257 72.044 73.46C72.044 74.7943 73.1257 75.876 74.46 75.876C75.7943 75.876 76.876 74.7943 76.876 73.46Z" fill="black"/>
<path d="M82.916 73.46C82.916 72.1257 81.8343 71.044 80.5 71.044C79.1657 71.044 78.084 72.1257 78.084 73.46C78.084 74.7943 79.1657 75.876 80.5 75.876C81.8343 75.876 82.916 74.7943 82.916 73.46Z" fill="black"/>
<path d="M88.956 73.46C88.956 72.1257 87.8743 71.044 86.54 71.044C85.2057 71.044 84.124 72.1257 84.124 73.46C84.124 74.7943 85.2057 75.876 86.54 75.876C87.8743 75.876 88.956 74.7943 88.956 73.46Z" fill="black"/>
<path d="M94.996 73.46C94.996 72.1257 93.9143 71.044 92.58 71.044C91.2457 71.044 90.164 72.1257 90.164 73.46C90.164 74.7943 91.2457 75.876 92.58 75.876C93.9143 75.876 94.996 74.7943 94.996 73.46Z" fill="black"/>
<path d="M113.116 73.46C113.116 72.1257 112.034 71.044 110.7 71.044C109.366 71.044 108.284 72.1257 108.284 73.46C108.284 74.7943 109.366 75.876 110.7 75.876C112.034 75.876 113.116 74.7943 113.116 73.46Z" fill="black"/>
<path d="M137.276 73.46C137.276 72.1257 136.194 71.044 134.86 71.044C133.526 71.044 132.444 72.1257 132.444 73.46C132.444 74.7943 133.526 75.876 134.86 75.876C136.194 75.876 137.276 74.7943 137.276 73.46Z" fill="black"/>
<path d="M143.316 73.46C143.316 72.1257 142.234 71.044 140.9 71.044C139.566 71.044 138.484 72.1257 138.484 73.46C138.484 74.7943 139.566 75.876 140.9 75.876C142.234 75.876 143.316 74.7943 143.316 73.46Z" fill="black"/>
<path d="M16.476 79.5C16.476 78.1657 15.3943 77.084 14.06 77.084C12.7257 77.084 11.644 78.1657 11.644 79.5C11.644 80.8343 12.7257 81.916 14.06 81.916C15.3943 81.916 16.476 80.8343 16.476 79.5Z" fill="black"/>
<path d="M22.516 79.5C22.516 78.1657 21.4343 77.084 20.1 77.084C18.7657 77.084 17.684 78.1657 17.684 79.5C17.684 80.8343 18.7657 81.916 20.1 81.916C21.4343 81.916 22.516 80.8343 22.516 79.5Z" fill="black"/>
<path d="M34.596 79.5C34.596 78.1657 33.5143 77.084 32.18 77.084C30.8457 77.084 29.764 78.1657 29.764 79.5C29.764 80.8343 30.8457 81.916 32.18 81.916C33.5143 81.916 34.596 80.8343 34.596 79.5Z" fill="black"/>
<path d="M46.676 79.5C46.676 78.1657 45.5943 77.084 44.26 77.084C42.9257 77.084 41.844 78.1657 41.844 79.5C41.844 80.8343 42.9257 81.916 44.26 81.916C45.5943 81.916 46.676 80.8343 46.676 79.5Z" fill="black"/>
<path d="M58.756 79.5C58.756 78.1657 57.6743 77.084 56.34 77.084C55.0057 77.084 53.924 78.1657 53.924 79.5C53.924 80.8343 55.0057 81.916 56.34 81.916C57.6743 81.916 58.756 80.8343 58.756 79.5Z" fill="black"/>
<path d="M64.796 79.5C64.796 78.1657 63.7143 77.084 62.38 77.084C61.0457 77.084 59.964 78.1657 59.964 79.5C59.964 80.8343 61.0457 81.916 62.38 81.916C63.7143 81.916 64.796 80.8343 64.796 79.5Z" fill="black"/>
<path d="M88.956 79.5C88.956 78.1657 87.8743 77.084 86.54 77.084C85.2057 77.084 84.124 78.1657 84.124 79.5C84.124 80.8343 85.2057 81.916 86.54 81.916C87.8743 81.916 88.956 80.8343 88.956 79.5Z" fill="black"/>
<path d="M113.116 79.5C113.116 78.1657 112.034 77.084 110.7 77.084C109.366 77.084 108.284 78.1657 108.284 79.5C108.284 80.8343 109.366 81.916 110.7 81.916C112.034 81.916 113.116 80.8343 113.116 79.5Z" fill="black"/>
<path d="M119.156 79.5C119.156 78.1657 118.074 77.084 116.74 77.084C115.406 77.084 114.324 78.1657 114.324 79.5C114.324 80.8343 115.406 81.916 116.74 81.916C118.074 81.916 119.156 80.8343 119.156 79.5Z" fill="black"/>
<path d="M125.196 79.5C125.196 78.1657 124.114 77.084 122.78 77.084C121.446 77.084 120.364 78.1657 120.364 79.5C120.364 80.8343 121.446 81.916 122.78 81.916C124.114 81.916 125.196 80.8343 125.196 79.5Z" fill="black"/>
<path d="M131.236 79.5C131.236 78.1657 130.154 77.084 128.82 77.084C127.486 77.084 126.404 78.1657 126.404 79.5C126.404 80.8343 127.486 81.916 128.82 81.916C130.154 81.916 131.236 80.8343 131.236 79.5Z" fill="black"/>
<path d="M143.316 79.5C143.316 78.1657 142.234 77.084 140.9 77.084C139.566 77.084 138.484 78.1657 138.484 79.5C138.484 80.8343 139.566 81.916 140.9 81.916C142.234 81.916 143.316 80.8343 143.316 79.5Z" fill="black"/>
<path d="M149.356 79.5C149.356 78.1657 148.274 77.084 146.94 77.084C145.606 77.084 144.524 78.1657 144.524 79.5C144.524 80.8343 145.606 81.916 146.94 81.916C148.274 81.916 149.356 80.8343 149.356 79.5Z" fill="black"/>
<path d="M155.396 79.5C155.396 78.1657 154.314 77.084 152.98 77.084C151.646 77.084 150.564 78.1657 150.564 79.5C150.564 80.8343 151.646 81.916 152.98 81.916C154.314 81.916 155.396 80.8343 155.396 79.5Z" fill="black"/>
<path d="M64.796 85.54C64.796 84.2057 63.7143 83.124 62.38 83.124C61.0457 83.124 59.964 84.2057 59.964 85.54C59.964 86.8743 61.0457 87.956 62.38 87.956C63.7143 87.956 64.796 86.8743 64.796 85.54Z" fill="black"/>
<path d="M70.836 85.54C70.836 84.2057 69.7543 83.124 68.42 83.124C67.0857 83.124 66.004 84.2057 66.004 85.54C66.004 86.8743 67.0857 87.956 68.42 87.956C69.7543 87.956 70.836 86.8743 70.836 85.54Z" fill="black"/>
<path d="M82.916 85.54C82.916 84.2057 81.8343 83.124 80.5 83.124C79.1657 83.124 78.084 84.2057 78.084 85.54C78.084 86.8743 79.1657 87.956 80.5 87.956C81.8343 87.956 82.916 86.8743 82.916 85.54Z" fill="black"/>
<path d="M101.036 85.54C101.036 84.2057 99.9543 83.124 98.62 83.124C97.2857 83.124 96.204 84.2057 96.204 85.54C96.204 86.8743 97.2857 87.956 98.62 87.956C99.9543 87.956 101.036 86.8743 101.036 85.54Z" fill="black"/>
<path d="M107.076 85.54C107.076 84.2057 105.994 83.124 104.66 83.124C103.326 83.124 102.244 84.2057 102.244 85.54C102.244 86.8743 103.326 87.956 104.66 87.956C105.994 87.956 107.076 86.8743 107.076 85.54Z" fill="black"/>
<path d="M113.116 85.54C113.116 84.2057 112.034 83.124 110.7 83.124C109.366 83.124 108.284 84.2057 108.284 85.54C108.284 86.8743 109.366 87.956 110.7 87.956C112.034 87.956 113.116 86.8743 113.116 85.54Z" fill="black"/>
<path d="M119.156 85.54C119.156 84.2057 118.074 83.124 116.74 83.124C115.406 83.124 114.324 84.2057 114.324 85.54C114.324 86.8743 115.406 87.956 116.74 87.956C118.074 87.956 119.156 86.8743 119.156 85.54Z" fill="black"/>
<path d="M125.196 85.54C125.196 84.2057 124.114 83.124 122.78 83.124C121.446 83.124 120.364 84.2057 120.364 85.54C120.364 86.8743 121.446 87.956 122.78 87.956C124.114 87.956 125.196 86.8743 125.196 85.54Z" fill="black"/>
<path d="M131.236 85.54C131.236 84.2057 130.154 83.124 128.82 83.124C127.486 83.124 126.404 84.2057 126.404 85.54C126.404 86.8743 127.486 87.956 128.82 87.956C130.154 87.956 131.236 86.8743 131.236 85.54Z" fill="black"/>
<path d="M155.396 85.54C155.396 84.2057 154.314 83.124 152.98 83.124C151.646 83.124 150.564 84.2057 150.564 85.54C150.564 86.8743 151.646 87.956 152.98 87.956C154.314 87.956 155.396 86.8743 155.396 85.54Z" fill="black"/>
<path d="M16.476 91.58C16.476 90.2457 15.3943 89.164 14.06 89.164C12.7257 89.164 11.644 90.2457 11.644 91.58C11.644 92.9143 12.7257 93.996 14.06 93.996C15.3943 93.996 16.476 92.9143 16.476 91.58Z" fill="black"/>
<path d="M28.556 91.58C28.556 90.2457 27.4743 89.164 26.14 89.164C24.8057 89.164 23.724 90.2457 23.724 91.58C23.724 92.9143 24.8057 93.996 26.14 93.996C27.4743 93.996 28.556 92.9143 28.556 91.58Z" fill="black"/>
<path d="M46.676 91.58C46.676 90.2457 45.5943 89.164 44.26 89.164C42.9257 89.164 41.844 90.2457 41.844 91.58C41.844 92.9143 42.9257 93.996 44.26 93.996C45.5943 93.996 46.676 92.9143 46.676 91.58Z" fill="black"/>
<path d="M52.716 91.58C52.716 90.2457 51.6343 89.164 50.3 89.164C48.9657 89.164 47.884 90.2457 47.884 91.58C47.884 92.9143 48.9657 93.996 50.3 93.996C51.6343 93.996 52.716 92.9143 52.716 91.58Z" fill="black"/>
<path d="M64.796 91.58C64.796 90.2457 63.7143 89.164 62.38 89.164C61.0457 89.164 59.964 90.2457 59.964 91.58C59.964 92.9143 61.0457 93.996 62.38 93.996C63.7143 93.996 64.796 92.9143 64.796 91.58Z" fill="black"/>
<path d="M70.836 91.58C70.836 90.2457 69.7543 89.164 68.42 89.164C67.0857 89.164 66.004 90.2457 66.004 91.58C66.004 92.9143 67.0857 93.996 68.42 93.996C69.7543 93.996 70.836 92.9143 70.836 91.58Z" fill="black"/>
<path d="M82.916 91.58C82.916 90.2457 81.8343 89.164 80.5 89.164C79.1657 89.164 78.084 90.2457 78.084 91.58C78.084 92.9143 79.1657 93.996 80.5 93.996C81.8343 93.996 82.916 92.9143 82.916 91.58Z" fill="black"/>
<path d="M107.076 91.58C107.076 90.2457 105.994 89.164 104.66 89.164C103.326 89.164 102.244 90.2457 102.244 91.58C102.244 92.9143 103.326 93.996 104.66 93.996C105.994 93.996 107.076 92.9143 107.076 91.58Z" fill="black"/>
<path d="M113.116 91.58C113.116 90.2457 112.034 89.164 110.7 89.164C109.366 89.164 108.284 90.2457 108.284 91.58C108.284 92.9143 109.366 93.996 110.7 93.996C112.034 93.996 113.116 92.9143 113.116 91.58Z" fill="black"/>
<path d="M119.156 91.58C119.156 90.2457 118.074 89.164 116.74 89.164C115.406 89.164 114.324 90.2457 114.324 91.58C114.324 92.9143 115.406 93.996 116.74 93.996C118.074 93.996 119.156 92.9143 119.156 91.58Z" fill="black"/>
<path d="M131.236 91.58C131.236 90.2457 130.154 89.164 128.82 89.164C127.486 89.164 126.404 90.2457 126.404 91.58C126.404 92.9143 127.486 93.996 128.82 93.996C130.154 93.996 131.236 92.9143 131.236 91.58Z" fill="black"/>
<path d="M143.316 91.58C143.316 90.2457 142.234 89.164 140.9 89.164C139.566 89.164 138.484 90.2457 138.484 91.58C138.484 92.9143 139.566 93.996 140.9 93.996C142.234 93.996 143.316 92.9143 143.316 91.58Z" fill="black"/>
<path d="M149.356 91.58C149.356 90.2457 148.274 89.164 146.94 89.164C145.606 89.164 144.524 90.2457 144.524 91.58C144.524 92.9143 145.606 93.996 146.94 93.996C148.274 93.996 149.356 92.9143 149.356 91.58Z" fill="black"/>
<path d="M10.436 97.62C10.436 96.2857 9.35432 95.204 8.02 95.204C6.68568 95.204 5.604 96.2857 5.604 97.62C5.604 98.9543 6.68568 100.036 8.02 100.036C9.35432 100.036 10.436 98.9543 10.436 97.62Z" fill="black"/>
<path d="M22.516 97.62C22.516 96.2857 21.4343 95.204 20.1 95.204C18.7657 95.204 17.684 96.2857 17.684 97.62C17.684 98.9543 18.7657 100.036 20.1 100.036C21.4343 100.036 22.516 98.9543 22.516 97.62Z" fill="black"/>
<path d="M28.556 97.62C28.556 96.2857 27.4743 95.204 26.14 95.204C24.8057 95.204 23.724 96.2857 23.724 97.62C23.724 98.9543 24.8057 100.036 26.14 100.036C27.4743 100.036 28.556 98.9543 28.556 97.62Z" fill="black"/>
<path d="M34.596 97.62C34.596 96.2857 33.5143 95.204 32.18 95.204C30.8457 95.204 29.764 96.2857 29.764 97.62C29.764 98.9543 30.8457 100.036 32.18 100.036C33.5143 100.036 34.596 98.9543 34.596 97.62Z" fill="black"/>
<path d="M125.196 97.62C125.196 96.2857 124.114 95.204 122.78 95.204C121.446 95.204 120.364 96.2857 120.364 97.62C120.364 98.9543 121.446 100.036 122.78 100.036C124.114 100.036 125.196 98.9543 125.196 97.62Z" fill="black"/>
<path d="M131.236 97.62C131.236 96.2857 130.154 95.204 128.82 95.204C127.486 95.204 126.404 96.2857 126.404 97.62C126.404 98.9543 127.486 100.036 128.82 100.036C130.154 100.036 131.236 98.9543 131.236 97.62Z" fill="black"/>
<path d="M155.396 97.62C155.396 96.2857 154.314 95.204 152.98 95.204C151.646 95.204 150.564 96.2857 150.564 97.62C150.564 98.9543 151.646 100.036 152.98 100.036C154.314 100.036 155.396 98.9543 155.396 97.62Z" fill="black"/>
<path d="M22.516 103.66C22.516 102.326 21.4343 101.244 20.1 101.244C18.7657 101.244 17.684 102.326 17.684 103.66C17.684 104.994 18.7657 106.076 20.1 106.076C21.4343 106.076 22.516 104.994 22.516 103.66Z" fill="black"/>
<path d="M46.676 103.66C46.676 102.326 45.5943 101.244 44.26 101.244C42.9257 101.244 41.844 102.326 41.844 103.66C41.844 104.994 42.9257 106.076 44.26 106.076C45.5943 106.076 46.676 104.994 46.676 103.66Z" fill="black"/>
<path d="M52.716 103.66C52.716 102.326 51.6343 101.244 50.3 101.244C48.9657 101.244 47.884 102.326 47.884 103.66C47.884 104.994 48.9657 106.076 50.3 106.076C51.6343 106.076 52.716 104.994 52.716 103.66Z" fill="black"/>
<path d="M70.836 103.66C70.836 102.326 69.7543 101.244 68.42 101.244C67.0857 101.244 66.004 102.326 66.004 103.66C66.004 104.994 67.0857 106.076 68.42 106.076C69.7543 106.076 70.836 104.994 70.836 103.66Z" fill="black"/>
<path d="M76.876 103.66C76.876 102.326 75.7943 101.244 74.46 101.244C73.1257 101.244 72.044 102.326 72.044 103.66C72.044 104.994 73.1257 106.076 74.46 106.076C75.7943 106.076 76.876 104.994 76.876 103.66Z" fill="black"/>
<path d="M82.916 103.66C82.916 102.326 81.8343 101.244 80.5 101.244C79.1657 101.244 78.084 102.326 78.084 103.66C78.084 104.994 79.1657 106.076 80.5 106.076C81.8343 106.076 82.916 104.994 82.916 103.66Z" fill="black"/>
<path d="M88.956 103.66C88.956 102.326 87.8743 101.244 86.54 101.244C85.2057 101.244 84.124 102.326 84.124 103.66C84.124 104.994 85.2057 106.076 86.54 106.076C87.8743 106.076 88.956 104.994 88.956 103.66Z" fill="black"/>
<path d="M107.076 103.66C107.076 102.326 105.994 101.244 104.66 101.244C103.326 101.244 102.244 102.326 102.244 103.66C102.244 104.994 103.326 106.076 104.66 106.076C105.994 106.076 107.076 104.994 107.076 103.66Z" fill="black"/>
<path d="M113.116 103.66C113.116 102.326 112.034 101.244 110.7 101.244C109.366 101.244 108.284 102.326 108.284 103.66C108.284 104.994 109.366 106.076 110.7 106.076C112.034 106.076 113.116 104.994 113.116 103.66Z" fill="black"/>
<path d="M119.156 103.66C119.156 102.326 118.074 101.244 116.74 101.244C115.406 101.244 114.324 102.326 114.324 103.66C114.324 104.994 115.406 106.076 116.74 106.076C118.074 106.076 119.156 104.994 119.156 103.66Z" fill="black"/>
<path d="M125.196 103.66C125.196 102.326 124.114 101.244 122.78 101.244C121.446 101.244 120.364 102.326 120.364 103.66C120.364 104.994 121.446 106.076 122.78 106.076C124.114 106.076 125.196 104.994 125.196 103.66Z" fill="black"/>
<path d="M131.236 103.66C131.236 102.326 130.154 101.244 128.82 101.244C127.486 101.244 126.404 102.326 126.404 103.66C126.404 104.994 127.486 106.076 128.82 106.076C130.154 106.076 131.236 104.994 131.236 103.66Z" fill="black"/>
<path d="M137.276 103.66C137.276 102.326 136.194 101.244 134.86 101.244C133.526 101.244 132.444 102.326 132.444 103.66C132.444 104.994 133.526 106.076 134.86 106.076C136.194 106.076 137.276 104.994 137.276 103.66Z" fill="black"/>
<path d="M143.316 103.66C143.316 102.326 142.234 101.244 140.9 101.244C139.566 101.244 138.484 102.326 138.484 103.66C138.484 104.994 139.566 106.076 140.9 106.076C142.234 106.076 143.316 104.994 143.316 103.66Z" fill="black"/>
<path d="M149.356 103.66C149.356 102.326 148.274 101.244 146.94 101.244C145.606 101.244 144.524 102.326 144.524 103.66C144.524 104.994 145.606 106.076 146.94 106.076C148.274 106.076 149.356 104.994 149.356 103.66Z" fill="black"/>
<path d="M155.396 103.66C155.396 102.326 154.314 101.244 152.98 101.244C151.646 101.244 150.564 102.326 150.564 103.66C150.564 104.994 151.646 106.076 152.98 106.076C154.314 106.076 155.396 104.994 155.396 103.66Z" fill="black"/>
<path d="M58.756 109.7C58.756 108.366 57.6743 107.284 56.34 107.284C55.0057 107.284 53.924 108.366 53.924 109.7C53.924 111.034 55.0057 112.116 56.34 112.116C57.6743 112.116 58.756 111.034 58.756 109.7Z" fill="black"/>
<path d="M64.796 109.7C64.796 108.366 63.7143 107.284 62.38 107.284C61.0457 107.284 59.964 108.366 59.964 109.7C59.964 111.034 61.0457 112.116 62.38 112.116C63.7143 112.116 64.796 111.034 64.796 109.7Z" fill="black"/>
<path d="M70.836 109.7C70.836 108.366 69.7543 107.284 68.42 107.284C67.0857 107.284 66.004 108.366 66.004 109.7C66.004 111.034 67.0857 112.116 68.42 112.116C69.7543 112.116 70.836 111.034 70.836 109.7Z" fill="black"/>
<path d="M76.876 109.7C76.876 108.366 75.7943 107.284 74.46 107.284C73.1257 107.284 72.044 108.366 72.044 109.7C72.044 111.034 73.1257 112.116 74.46 112.116C75.7943 112.116 76.876 111.034 76.876 109.7Z" fill="black"/>
<path d="M82.916 109.7C82.916 108.366 81.8343 107.284 80.5 107.284C79.1657 107.284 78.084 108.366 78.084 109.7C78.084 111.034 79.1657 112.116 80.5 112.116C81.8343 112.116 82.916 111.034 82.916 109.7Z" fill="black"/>
<path d="M94.996 109.7C94.996 108.366 93.9143 107.284 92.58 107.284C91.2457 107.284 90.164 108.366 90.164 109.7C90.164 111.034 91.2457 112.116 92.58 112.116C93.9143 112.116 94.996 111.034 94.996 109.7Z" fill="black"/>
<path d="M101.036 109.7C101.036 108.366 99.9543 107.284 98.62 107.284C97.2857 107.284 96.204 108.366 96.204 109.7C96.204 111.034 97.2857 112.116 98.62 112.116C99.9543 112.116 101.036 111.034 101.036 109.7Z" fill="black"/>
<path d="M107.076 109.7C107.076 108.366 105.994 107.284 104.66 107.284C103.326 107.284 102.244 108.366 102.244 109.7C102.244 111.034 103.326 112.116 104.66 112.116C105.994 112.116 107.076 111.034 107.076 109.7Z" fill="black"/>
<path d="M131.236 109.7C131.236 108.366 130.154 107.284 128.82 107.284C127.486 107.284 126.404 108.366 126.404 109.7C126.404 111.034 127.486 112.116 128.82 112.116C130.154 112.116 131.236 111.034 131.236 109.7Z" fill="black"/>
<path d="M143.316 109.7C143.316 108.366 142.234 107.284 140.9 107.284C139.566 107.284 138.484 108.366 138.484 109.7C138.484 111.034 139.566 112.116 140.9 112.116C142.234 112.116 143.316 111.034 143.316 109.7Z" fill="black"/>
<path d="M155.396 109.7C155.396 108.366 154.314 107.284 152.98 107.284C151.646 107.284 150.564 108.366 150.564 109.7C150.564 111.034 151.646 112.116 152.98 112.116C154.314 112.116 155.396 111.034 155.396 109.7Z" fill="black"/>
<path d="M64.796 115.74C64.796 114.406 63.7143 113.324 62.38 113.324C61.0457 113.324 59.964 114.406 59.964 115.74C59.964 117.074 61.0457 118.156 62.38 118.156C63.7143 118.156 64.796 117.074 64.796 115.74Z" fill="black"/>
<path d="M82.916 115.74C82.916 114.406 81.8343 113.324 80.5 113.324C79.1657 113.324 78.084 114.406 78.084 115.74C78.084 117.074 79.1657 118.156 80.5 118.156C81.8343 118.156 82.916 117.074 82.916 115.74Z" fill="black"/>
<path d="M107.076 115.74C107.076 114.406 105.994 113.324 104.66 113.324C103.326 113.324 102.244 114.406 102.244 115.74C102.244 117.074 103.326 118.156 104.66 118.156C105.994 118.156 107.076 117.074 107.076 115.74Z" fill="black"/>
<path d="M119.156 115.74C119.156 114.406 118.074 113.324 116.74 113.324C115.406 113.324 114.324 114.406 114.324 115.74C114.324 117.074 115.406 118.156 116.74 118.156C118.074 118.156 119.156 117.074 119.156 115.74Z" fill="black"/>
<path d="M131.236 115.74C131.236 114.406 130.154 113.324 128.82 113.324C127.486 113.324 126.404 114.406 126.404 115.74C126.404 117.074 127.486 118.156 128.82 118.156C130.154 118.156 131.236 117.074 131.236 115.74Z" fill="black"/>
<path d="M143.316 115.74C143.316 114.406 142.234 113.324 140.9 113.324C139.566 113.324 138.484 114.406 138.484 115.74C138.484 117.074 139.566 118.156 140.9 118.156C142.234 118.156 143.316 117.074 143.316 115.74Z" fill="black"/>
<path d="M149.356 115.74C149.356 114.406 148.274 113.324 146.94 113.324C145.606 113.324 144.524 114.406 144.524 115.74C144.524 117.074 145.606 118.156 146.94 118.156C148.274 118.156 149.356 117.074 149.356 115.74Z" fill="black"/>
<path d="M155.396 115.74C155.396 114.406 154.314 113.324 152.98 113.324C151.646 113.324 150.564 114.406 150.564 115.74C150.564 117.074 151.646 118.156 152.98 118.156C154.314 118.156 155.396 117.074 155.396 115.74Z" fill="black"/>
<path d="M94.996 121.78C94.996 120.446 93.9143 119.364 92.58 119.364C91.2457 119.364 90.164 120.446 90.164 121.78C90.164 123.114 91.2457 124.196 92.58 124.196C93.9143 124.196 94.996 123.114 94.996 121.78Z" fill="black"/>
<path d="M101.036 121.78C101.036 120.446 99.9543 119.364 98.62 119.364C97.2857 119.364 96.204 120.446 96.204 121.78C96.204 123.114 97.2857 124.196 98.62 124.196C99.9543 124.196 101.036 123.114 101.036 121.78Z" fill="black"/>
<path d="M107.076 121.78C107.076 120.446 105.994 119.364 104.66 119.364C103.326 119.364 102.244 120.446 102.244 121.78C102.244 123.114 103.326 124.196 104.66 124.196C105.994 124.196 107.076 123.114 107.076 121.78Z" fill="black"/>
<path d="M131.236 121.78C131.236 120.446 130.154 119.364 128.82 119.364C127.486 119.364 126.404 120.446 126.404 121.78C126.404 123.114 127.486 124.196 128.82 124.196C130.154 124.196 131.236 123.114 131.236 121.78Z" fill="black"/>
<path d="M149.356 121.78C149.356 120.446 148.274 119.364 146.94 119.364C145.606 119.364 144.524 120.446 144.524 121.78C144.524 123.114 145.606 124.196 146.94 124.196C148.274 124.196 149.356 123.114 149.356 121.78Z" fill="black"/>
<path d="M76.876 127.82C76.876 126.486 75.7943 125.404 74.46 125.404C73.1257 125.404 72.044 126.486 72.044 127.82C72.044 129.154 73.1257 130.236 74.46 130.236C75.7943 130.236 76.876 129.154 76.876 127.82Z" fill="black"/>
<path d="M107.076 127.82C107.076 126.486 105.994 125.404 104.66 125.404C103.326 125.404 102.244 126.486 102.244 127.82C102.244 129.154 103.326 130.236 104.66 130.236C105.994 130.236 107.076 129.154 107.076 127.82Z" fill="black"/>
<path d="M113.116 127.82C113.116 126.486 112.034 125.404 110.7 125.404C109.366 125.404 108.284 126.486 108.284 127.82C108.284 129.154 109.366 130.236 110.7 130.236C112.034 130.236 113.116 129.154 113.116 127.82Z" fill="black"/>
<path d="M119.156 127.82C119.156 126.486 118.074 125.404 116.74 125.404C115.406 125.404 114.324 126.486 114.324 127.82C114.324 129.154 115.406 130.236 116.74 130.236C118.074 130.236 119.156 129.154 119.156 127.82Z" fill="black"/>
<path d="M125.196 127.82C125.196 126.486 124.114 125.404 122.78 125.404C121.446 125.404 120.364 126.486 120.364 127.82C120.364 129.154 121.446 130.236 122.78 130.236C124.114 130.236 125.196 129.154 125.196 127.82Z" fill="black"/>
<path d="M131.236 127.82C131.236 126.486 130.154 125.404 128.82 125.404C127.486 125.404 126.404 126.486 126.404 127.82C126.404 129.154 127.486 130.236 128.82 130.236C130.154 130.236 131.236 129.154 131.236 127.82Z" fill="black"/>
<path d="M137.276 127.82C137.276 126.486 136.194 125.404 134.86 125.404C133.526 125.404 132.444 126.486 132.444 127.82C132.444 129.154 133.526 130.236 134.86 130.236C136.194 130.236 137.276 129.154 137.276 127.82Z" fill="black"/>
<path d="M149.356 127.82C149.356 126.486 148.274 125.404 146.94 125.404C145.606 125.404 144.524 126.486 144.524 127.82C144.524 129.154 145.606 130.236 146.94 130.236C148.274 130.236 149.356 129.154 149.356 127.82Z" fill="black"/>
<path d="M155.396 127.82C155.396 126.486 154.314 125.404 152.98 125.404C151.646 125.404 150.564 126.486 150.564 127.82C150.564 129.154 151.646 130.236 152.98 130.236C154.314 130.236 155.396 129.154 155.396 127.82Z" fill="black"/>
<path d="M58.756 133.86C58.756 132.526 57.6743 131.444 56.34 131.444C55.0057 131.444 53.924 132.526 53.924 133.86C53.924 135.194 55.0057 136.276 56.34 136.276C57.6743 136.276 58.756 135.194 58.756 133.86Z" fill="black"/>
<path d="M70.836 133.86C70.836 132.526 69.7543 131.444 68.42 131.444C67.0857 131.444 66.004 132.526 66.004 133.86C66.004 135.194 67.0857 136.276 68.42 136.276C69.7543 136.276 70.836 135.194 70.836 133.86Z" fill="black"/>
<path d="M76.876 133.86C76.876 132.526 75.7943 131.444 74.46 131.444C73.1257 131.444 72.044 132.526 72.044 133.86C72.044 135.194 73.1257 136.276 74.46 136.276C75.7943 136.276 76.876 135.194 76.876 133.86Z" fill="black"/>
<path d="M88.956 133.86C88.956 132.526 87.8743 131.444 86.54 131.444C85.2057 131.444 84.124 132.526 84.124 133.86C84.124 135.194 85.2057 136.276 86.54 136.276C87.8743 136.276 88.956 135.194 88.956 133.86Z" fill="black"/>
<path d="M94.996 133.86C94.996 132.526 93.9143 131.444 92.58 131.444C91.2457 131.444 90.164 132.526 90.164 133.86C90.164 135.194 91.2457 136.276 92.58 136.276C93.9143 136.276 94.996 135.194 94.996 133.86Z" fill="black"/>
<path d="M113.116 133.86C113.116 132.526 112.034 131.444 110.7 131.444C109.366 131.444 108.284 132.526 108.284 133.86C108.284 135.194 109.366 136.276 110.7 136.276C112.034 136.276 113.116 135.194 113.116 133.86Z" fill="black"/>
<path d="M119.156 133.86C119.156 132.526 118.074 131.444 116.74 131.444C115.406 131.444 114.324 132.526 114.324 133.86C114.324 135.194 115.406 136.276 116.74 136.276C118.074 136.276 119.156 135.194 119.156 133.86Z" fill="black"/>
<path d="M131.236 133.86C131.236 132.526 130.154 131.444 128.82 131.444C127.486 131.444 126.404 132.526 126.404 133.86C126.404 135.194 127.486 136.276 128.82 136.276C130.154 136.276 131.236 135.194 131.236 133.86Z" fill="black"/>
<path d="M137.276 133.86C137.276 132.526 136.194 131.444 134.86 131.444C133.526 131.444 132.444 132.526 132.444 133.86C132.444 135.194 133.526 136.276 134.86 136.276C136.194 136.276 137.276 135.194 137.276 133.86Z" fill="black"/>
<path d="M143.316 133.86C143.316 132.526 142.234 131.444 140.9 131.444C139.566 131.444 138.484 132.526 138.484 133.86C138.484 135.194 139.566 136.276 140.9 136.276C142.234 136.276 143.316 135.194 143.316 133.86Z" fill="black"/>
<path d="M149.356 133.86C149.356 132.526 148.274 131.444 146.94 131.444C145.606 131.444 144.524 132.526 144.524 133.86C144.524 135.194 145.606 136.276 146.94 136.276C148.274 136.276 149.356 135.194 149.356 133.86Z" fill="black"/>
<path d="M155.396 133.86C155.396 132.526 154.314 131.444 152.98 131.444C151.646 131.444 150.564 132.526 150.564 133.86C150.564 135.194 151.646 136.276 152.98 136.276C154.314 136.276 155.396 135.194 155.396 133.86Z" fill="black"/>
<path d="M58.756 139.9C58.756 138.566 57.6743 137.484 56.34 137.484C55.0057 137.484 53.924 138.566 53.924 139.9C53.924 141.234 55.0057 142.316 56.34 142.316C57.6743 142.316 58.756 141.234 58.756 139.9Z" fill="black"/>
<path d="M64.796 139.9C64.796 138.566 63.7143 137.484 62.38 137.484C61.0457 137.484 59.964 138.566 59.964 139.9C59.964 141.234 61.0457 142.316 62.38 142.316C63.7143 142.316 64.796 141.234 64.796 139.9Z" fill="black"/>
<path d="M76.876 139.9C76.876 138.566 75.7943 137.484 74.46 137.484C73.1257 137.484 72.044 138.566 72.044 139.9C72.044 141.234 73.1257 142.316 74.46 142.316C75.7943 142.316 76.876 141.234 76.876 139.9Z" fill="black"/>
<path d="M94.996 139.9C94.996 138.566 93.9143 137.484 92.58 137.484C91.2457 137.484 90.164 138.566 90.164 139.9C90.164 141.234 91.2457 142.316 92.58 142.316C93.9143 142.316 94.996 141.234 94.996 139.9Z" fill="black"/>
<path d="M101.036 139.9C101.036 138.566 99.9543 137.484 98.62 137.484C97.2857 137.484 96.204 138.566 96.204 139.9C96.204 141.234 97.2857 142.316 98.62 142.316C99.9543 142.316 101.036 141.234 101.036 139.9Z" fill="black"/>
<path d="M119.156 139.9C119.156 138.566 118.074 137.484 116.74 137.484C115.406 137.484 114.324 138.566 114.324 139.9C114.324 141.234 115.406 142.316 116.74 142.316C118.074 142.316 119.156 141.234 119.156 139.9Z" fill="black"/>
<path d="M131.236 139.9C131.236 138.566 130.154 137.484 128.82 137.484C127.486 137.484 126.404 138.566 126.404 139.9C126.404 141.234 127.486 142.316 128.82 142.316C130.154 142.316 131.236 141.234 131.236 139.9Z" fill="black"/>
<path d="M143.316 139.9C143.316 138.566 142.234 137.484 140.9 137.484C139.566 137.484 138.484 138.566 138.484 139.9C138.484 141.234 139.566 142.316 140.9 142.316C142.234 142.316 143.316 141.234 143.316 139.9Z" fill="black"/>
<path d="M149.356 139.9C149.356 138.566 148.274 137.484 146.94 137.484C145.606 137.484 144.524 138.566 144.524 139.9C144.524 141.234 145.606 142.316 146.94 142.316C148.274 142.316 149.356 141.234 149.356 139.9Z" fill="black"/>
<path d="M58.756 145.94C58.756 144.606 57.6743 143.524 56.34 143.524C55.0057 143.524 53.924 144.606 53.924 145.94C53.924 147.274 55.0057 148.356 56.34 148.356C57.6743 148.356 58.756 147.274 58.756 145.94Z" fill="black"/>
<path d="M70.836 145.94C70.836 144.606 69.7543 143.524 68.42 143.524C67.0857 143.524 66.004 144.606 66.004 145.94C66.004 147.274 67.0857 148.356 68.42 148.356C69.7543 148.356 70.836 147.274 70.836 145.94Z" fill="black"/>
<path d="M76.876 145.94C76.876 144.606 75.7943 143.524 74.46 143.524C73.1257 143.524 72.044 144.606 72.044 145.94C72.044 147.274 73.1257 148.356 74.46 148.356C75.7943 148.356 76.876 147.274 76.876 145.94Z" fill="black"/>
<path d="M88.956 145.94C88.956 144.606 87.8743 143.524 86.54 143.524C85.2057 143.524 84.124 144.606 84.124 145.94C84.124 147.274 85.2057 148.356 86.54 148.356C87.8743 148.356 88.956 147.274 88.956 145.94Z" fill="black"/>
<path d="M94.996 145.94C94.996 144.606 93.9143 143.524 92.58 143.524C91.2457 143.524 90.164 144.606 90.164 145.94C90.164 147.274 91.2457 148.356 92.58 148.356C93.9143 148.356 94.996 147.274 94.996 145.94Z" fill="black"/>
<path d="M101.036 145.94C101.036 144.606 99.9543 143.524 98.62 143.524C97.2857 143.524 96.204 144.606 96.204 145.94C96.204 147.274 97.2857 148.356 98.62 148.356C99.9543 148.356 101.036 147.274 101.036 145.94Z" fill="black"/>
<path d="M119.156 145.94C119.156 144.606 118.074 143.524 116.74 143.524C115.406 143.524 114.324 144.606 114.324 145.94C114.324 147.274 115.406 148.356 116.74 148.356C118.074 148.356 119.156 147.274 119.156 145.94Z" fill="black"/>
<path d="M131.236 145.94C131.236 144.606 130.154 143.524 128.82 143.524C127.486 143.524 126.404 144.606 126.404 145.94C126.404 147.274 127.486 148.356 128.82 148.356C130.154 148.356 131.236 147.274 131.236 145.94Z" fill="black"/>
<path d="M143.316 145.94C143.316 144.606 142.234 143.524 140.9 143.524C139.566 143.524 138.484 144.606 138.484 145.94C138.484 147.274 139.566 148.356 140.9 148.356C142.234 148.356 143.316 147.274 143.316 145.94Z" fill="black"/>
<path d="M58.756 151.98C58.756 150.646 57.6743 149.564 56.34 149.564C55.0057 149.564 53.924 150.646 53.924 151.98C53.924 153.314 55.0057 154.396 56.34 154.396C57.6743 154.396 58.756 153.314 58.756 151.98Z" fill="black"/>
<path d="M76.876 151.98C76.876 150.646 75.7943 149.564 74.46 149.564C73.1257 149.564 72.044 150.646 72.044 151.98C72.044 153.314 73.1257 154.396 74.46 154.396C75.7943 154.396 76.876 153.314 76.876 151.98Z" fill="black"/>
<path d="M88.956 151.98C88.956 150.646 87.8743 149.564 86.54 149.564C85.2057 149.564 84.124 150.646 84.124 151.98C84.124 153.314 85.2057 154.396 86.54 154.396C87.8743 154.396 88.956 153.314 88.956 151.98Z" fill="black"/>
<path d="M94.996 151.98C94.996 150.646 93.9143 149.564 92.58 149.564C91.2457 149.564 90.164 150.646 90.164 151.98C90.164 153.314 91.2457 154.396 92.58 154.396C93.9143 154.396 94.996 153.314 94.996 151.98Z" fill="black"/>
<path d="M113.116 151.98C113.116 150.646 112.034 149.564 110.7 149.564C109.366 149.564 108.284 150.646 108.284 151.98C108.284 153.314 109.366 154.396 110.7 154.396C112.034 154.396 113.116 153.314 113.116 151.98Z" fill="black"/>
<path d="M119.156 151.98C119.156 150.646 118.074 149.564 116.74 149.564C115.406 149.564 114.324 150.646 114.324 151.98C114.324 153.314 115.406 154.396 116.74 154.396C118.074 154.396 119.156 153.314 119.156 151.98Z" fill="black"/>
<path d="M125.196 151.98C125.196 150.646 124.114 149.564 122.78 149.564C121.446 149.564 120.364 150.646 120.364 151.98C120.364 153.314 121.446 154.396 122.78 154.396C124.114 154.396 125.196 153.314 125.196 151.98Z" fill="black"/>
<path d="M131.236 151.98C131.236 150.646 130.154 149.564 128.82 149.564C127.486 149.564 126.404 150.646 126.404 151.98C126.404 153.314 127.486 154.396 128.82 154.396C130.154 154.396 131.236 153.314 131.236 151.98Z" fill="black"/>
<path d="M137.276 151.98C137.276 150.646 136.194 149.564 134.86 149.564C133.526 149.564 132.444 150.646 132.444 151.98C132.444 153.314 133.526 154.396 134.86 154.396C136.194 154.396 137.276 153.314 137.276 151.98Z" fill="black"/>
<path d="M143.316 151.98C143.316 150.646 142.234 149.564 140.9 149.564C139.566 149.564 138.484 150.646 138.484 151.98C138.484 153.314 139.566 154.396 140.9 154.396C142.234 154.396 143.316 153.314 143.316 151.98Z" fill="black"/>
<path d="M149.356 151.98C149.356 150.646 148.274 149.564 146.94 149.564C145.606 149.564 144.524 150.646 144.524 151.98C144.524 153.314 145.606 154.396 146.94 154.396C148.274 154.396 149.356 153.314 149.356 151.98Z" fill="black"/>
<path d="M155.396 151.98C155.396 150.646 154.314 149.564 152.98 149.564C151.646 149.564 150.564 150.646 150.564 151.98C150.564 153.314 151.646 154.396 152.98 154.396C154.314 154.396 155.396 153.314 155.396 151.98Z" fill="black"/>
</g>
<defs>
<clipPath id="clip0_1_2">
<rect width="151" height="151" fill="white" transform="translate(5 4)"/>
</clipPath>
</defs>
</svg>
