<svg width="100%" height="100%" viewBox="0 0 25 25" xmlns="http://www.w3.org/2000/svg"><title>QR Code</title><rect x="0.5" y="0.5" width="6" height="6" rx="2.5" ry="2.5" stroke="currentColor" stroke-width="1" fill="transparent"></rect><rect x="2" y="2" width="3" height="3" rx="1" ry="1" fill="currentColor"></rect><rect x="18.5" y="0.5" width="6" height="6" rx="2.5" ry="2.5" stroke="currentColor" stroke-width="1" fill="transparent"></rect><rect x="20" y="2" width="3" height="3" rx="1" ry="1" fill="currentColor"></rect><rect x="0.5" y="18.5" width="6" height="6" rx="2.5" ry="2.5" stroke="currentColor" stroke-width="1" fill="transparent"></rect><rect x="2" y="20" width="3" height="3" rx="1" ry="1" fill="currentColor"></rect><rect x="8.1" y="0.09999999999999998" width="0.8" height="0.8" rx="0.4" ry="0.4" fill="currentColor"></rect><rect x="9.1" y="0.09999999999999998" width="0.8" height="0.8" rx="0.4" ry="0.4" fill="currentColor"></rect><rect x="13.1" y="0.09999999999999998" width="0.8" height="0.8" rx="0.4" ry="0.4" fill="currentColor"></rect><rect x="16.1" y="0.09999999999999998" width="0.8" height="0.8" rx="0.4" ry="0.4" fill="currentColor"></rect><rect x="13.1" y="1.1" width="0.8" height="0.8" rx="0.4" ry="0.4" fill="currentColor"></rect><rect x="16.1" y="1.1" width="0.8" height="0.8" rx="0.4" ry="0.4" fill="currentColor"></rect><rect x="8.1" y="2.1" width="0.8" height="0.8" rx="0.4" ry="0.4" fill="currentColor"></rect><rect x="11.1" y="2.1" width="0.8" height="0.8" rx="0.4" ry="0.4" fill="currentColor"></rect><rect x="12.1" y="2.1" width="0.8" height="0.8" rx="0.4" ry="0.4" fill="currentColor"></rect><rect x="13.1" y="2.1" width="0.8" height="0.8" rx="0.4" ry="0.4" fill="currentColor"></rect><rect x="14.1" y="2.1" width="0.8" height="0.8" rx="0.4" ry="0.4" fill="currentColor"></rect><rect x="15.1" y="2.1" width="0.8" height="0.8" rx="0.4" ry="0.4" fill="currentColor"></rect><rect x="16.1" y="2.1" width="0.8" height="0.8" rx="0.4" ry="0.4" fill="currentColor"></rect><rect x="8.1" y="3.1" width="0.8" height="0.8" rx="0.4" ry="0.4" fill="currentColor"></rect><rect x="9.1" y="3.1" width="0.8" height="0.8" rx="0.4" ry="0.4" fill="currentColor"></rect><rect x="11.1" y="3.1" width="0.8" height="0.8" rx="0.4" ry="0.4" fill="currentColor"></rect><rect x="12.1" y="3.1" width="0.8" height="0.8" rx="0.4" ry="0.4" fill="currentColor"></rect><rect x="13.1" y="3.1" width="0.8" height="0.8" rx="0.4" ry="0.4" fill="currentColor"></rect><rect x="14.1" y="3.1" width="0.8" height="0.8" rx="0.4" ry="0.4" fill="currentColor"></rect><rect x="15.1" y="3.1" width="0.8" height="0.8" rx="0.4" ry="0.4" fill="currentColor"></rect><rect x="8.1" y="4.1" width="0.8" height="0.8" rx="0.4" ry="0.4" fill="currentColor"></rect><rect x="9.1" y="4.1" width="0.8" height="0.8" rx="0.4" ry="0.4" fill="currentColor"></rect><rect x="10.1" y="4.1" width="0.8" height="0.8" rx="0.4" ry="0.4" fill="currentColor"></rect><rect x="11.1" y="4.1" width="0.8" height="0.8" rx="0.4" ry="0.4" fill="currentColor"></rect><rect x="13.1" y="4.1" width="0.8" height="0.8" rx="0.4" ry="0.4" fill="currentColor"></rect><rect x="14.1" y="4.1" width="0.8" height="0.8" rx="0.4" ry="0.4" fill="currentColor"></rect><rect x="15.1" y="4.1" width="0.8" height="0.8" rx="0.4" ry="0.4" fill="currentColor"></rect><rect x="16.1" y="4.1" width="0.8" height="0.8" rx="0.4" ry="0.4" fill="currentColor"></rect><rect x="9.1" y="5.1" width="0.8" height="0.8" rx="0.4" ry="0.4" fill="currentColor"></rect><rect x="12.1" y="5.1" width="0.8" height="0.8" rx="0.4" ry="0.4" fill="currentColor"></rect><rect x="13.1" y="5.1" width="0.8" height="0.8" rx="0.4" ry="0.4" fill="currentColor"></rect><rect x="14.1" y="5.1" width="0.8" height="0.8" rx="0.4" ry="0.4" fill="currentColor"></rect><rect x="16.1" y="5.1" width="0.8" height="0.8" rx="0.4" ry="0.4" fill="currentColor"></rect><rect x="8.1" y="6.1" width="0.8" height="0.8" rx="0.4" ry="0.4" fill="currentColor"></rect><rect x="10.1" y="6.1" width="0.8" height="0.8" rx="0.4" ry="0.4" fill="currentColor"></rect><rect x="12.1" y="6.1" width="0.8" height="0.8" rx="0.4" ry="0.4" fill="currentColor"></rect><rect x="14.1" y="6.1" width="0.8" height="0.8" rx="0.4" ry="0.4" fill="currentColor"></rect><rect x="16.1" y="6.1" width="0.8" height="0.8" rx="0.4" ry="0.4" fill="currentColor"></rect><rect x="9.1" y="7.1" width="0.8" height="0.8" rx="0.4" ry="0.4" fill="currentColor"></rect><rect x="12.1" y="7.1" width="0.8" height="0.8" rx="0.4" ry="0.4" fill="currentColor"></rect><rect x="15.1" y="7.1" width="0.8" height="0.8" rx="0.4" ry="0.4" fill="currentColor"></rect><rect x="16.1" y="7.1" width="0.8" height="0.8" rx="0.4" ry="0.4" fill="currentColor"></rect><rect x="0.09999999999999998" y="8.1" width="0.8" height="0.8" rx="0.4" ry="0.4" fill="currentColor"></rect><rect x="1.1" y="8.1" width="0.8" height="0.8" rx="0.4" ry="0.4" fill="currentColor"></rect><rect x="2.1" y="8.1" width="0.8" height="0.8" rx="0.4" ry="0.4" fill="currentColor"></rect><rect x="3.1" y="8.1" width="0.8" height="0.8" rx="0.4" ry="0.4" fill="currentColor"></rect><rect x="6.1" y="8.1" width="0.8" height="0.8" rx="0.4" ry="0.4" fill="currentColor"></rect><rect x="8.1" y="8.1" width="0.8" height="0.8" rx="0.4" ry="0.4" fill="currentColor"></rect><rect x="12.1" y="8.1" width="0.8" height="0.8" rx="0.4" ry="0.4" fill="currentColor"></rect><rect x="15.1" y="8.1" width="0.8" height="0.8" rx="0.4" ry="0.4" fill="currentColor"></rect><rect x="16.1" y="8.1" width="0.8" height="0.8" rx="0.4" ry="0.4" fill="currentColor"></rect><rect x="17.1" y="8.1" width="0.8" height="0.8" rx="0.4" ry="0.4" fill="currentColor"></rect><rect x="20.1" y="8.1" width="0.8" height="0.8" rx="0.4" ry="0.4" fill="currentColor"></rect><rect x="21.1" y="8.1" width="0.8" height="0.8" rx="0.4" ry="0.4" fill="currentColor"></rect><rect x="22.1" y="8.1" width="0.8" height="0.8" rx="0.4" ry="0.4" fill="currentColor"></rect><rect x="24.1" y="8.1" width="0.8" height="0.8" rx="0.4" ry="0.4" fill="currentColor"></rect><rect x="0.09999999999999998" y="9.1" width="0.8" height="0.8" rx="0.4" ry="0.4" fill="currentColor"></rect><rect x="3.1" y="9.1" width="0.8" height="0.8" rx="0.4" ry="0.4" fill="currentColor"></rect><rect x="8.1" y="9.1" width="0.8" height="0.8" rx="0.4" ry="0.4" fill="currentColor"></rect><rect x="9.1" y="9.1" width="0.8" height="0.8" rx="0.4" ry="0.4" fill="currentColor"></rect><rect x="11.1" y="9.1" width="0.8" height="0.8" rx="0.4" ry="0.4" fill="currentColor"></rect><rect x="12.1" y="9.1" width="0.8" height="0.8" rx="0.4" ry="0.4" fill="currentColor"></rect><rect x="13.1" y="9.1" width="0.8" height="0.8" rx="0.4" ry="0.4" fill="currentColor"></rect><rect x="19.1" y="9.1" width="0.8" height="0.8" rx="0.4" ry="0.4" fill="currentColor"></rect><rect x="23.1" y="9.1" width="0.8" height="0.8" rx="0.4" ry="0.4" fill="currentColor"></rect><rect x="1.1" y="10.1" width="0.8" height="0.8" rx="0.4" ry="0.4" fill="currentColor"></rect><rect x="4.1" y="10.1" width="0.8" height="0.8" rx="0.4" ry="0.4" fill="currentColor"></rect><rect x="5.1" y="10.1" width="0.8" height="0.8" rx="0.4" ry="0.4" fill="currentColor"></rect><rect x="6.1" y="10.1" width="0.8" height="0.8" rx="0.4" ry="0.4" fill="currentColor"></rect><rect x="11.1" y="10.1" width="0.8" height="0.8" rx="0.4" ry="0.4" fill="currentColor"></rect><rect x="13.1" y="10.1" width="0.8" height="0.8" rx="0.4" ry="0.4" fill="currentColor"></rect><rect x="17.1" y="10.1" width="0.8" height="0.8" rx="0.4" ry="0.4" fill="currentColor"></rect><rect x="18.1" y="10.1" width="0.8" height="0.8" rx="0.4" ry="0.4" fill="currentColor"></rect><rect x="20.1" y="10.1" width="0.8" height="0.8" rx="0.4" ry="0.4" fill="currentColor"></rect><rect x="0.09999999999999998" y="11.1" width="0.8" height="0.8" rx="0.4" ry="0.4" fill="currentColor"></rect><rect x="2.1" y="11.1" width="0.8" height="0.8" rx="0.4" ry="0.4" fill="currentColor"></rect><rect x="3.1" y="11.1" width="0.8" height="0.8" rx="0.4" ry="0.4" fill="currentColor"></rect><rect x="4.1" y="11.1" width="0.8" height="0.8" rx="0.4" ry="0.4" fill="currentColor"></rect><rect x="8.1" y="11.1" width="0.8" height="0.8" rx="0.4" ry="0.4" fill="currentColor"></rect><rect x="11.1" y="11.1" width="0.8" height="0.8" rx="0.4" ry="0.4" fill="currentColor"></rect><rect x="12.1" y="11.1" width="0.8" height="0.8" rx="0.4" ry="0.4" fill="currentColor"></rect><rect x="13.1" y="11.1" width="0.8" height="0.8" rx="0.4" ry="0.4" fill="currentColor"></rect><rect x="14.1" y="11.1" width="0.8" height="0.8" rx="0.4" ry="0.4" fill="currentColor"></rect><rect x="17.1" y="11.1" width="0.8" height="0.8" rx="0.4" ry="0.4" fill="currentColor"></rect><rect x="21.1" y="11.1" width="0.8" height="0.8" rx="0.4" ry="0.4" fill="currentColor"></rect><rect x="22.1" y="11.1" width="0.8" height="0.8" rx="0.4" ry="0.4" fill="currentColor"></rect><rect x="1.1" y="12.1" width="0.8" height="0.8" rx="0.4" ry="0.4" fill="currentColor"></rect><rect x="2.1" y="12.1" width="0.8" height="0.8" rx="0.4" ry="0.4" fill="currentColor"></rect><rect x="4.1" y="12.1" width="0.8" height="0.8" rx="0.4" ry="0.4" fill="currentColor"></rect><rect x="6.1" y="12.1" width="0.8" height="0.8" rx="0.4" ry="0.4" fill="currentColor"></rect><rect x="8.1" y="12.1" width="0.8" height="0.8" rx="0.4" ry="0.4" fill="currentColor"></rect><rect x="9.1" y="12.1" width="0.8" height="0.8" rx="0.4" ry="0.4" fill="currentColor"></rect><rect x="13.1" y="12.1" width="0.8" height="0.8" rx="0.4" ry="0.4" fill="currentColor"></rect><rect x="17.1" y="12.1" width="0.8" height="0.8" rx="0.4" ry="0.4" fill="currentColor"></rect><rect x="18.1" y="12.1" width="0.8" height="0.8" rx="0.4" ry="0.4" fill="currentColor"></rect><rect x="19.1" y="12.1" width="0.8" height="0.8" rx="0.4" ry="0.4" fill="currentColor"></rect><rect x="20.1" y="12.1" width="0.8" height="0.8" rx="0.4" ry="0.4" fill="currentColor"></rect><rect x="22.1" y="12.1" width="0.8" height="0.8" rx="0.4" ry="0.4" fill="currentColor"></rect><rect x="23.1" y="12.1" width="0.8" height="0.8" rx="0.4" ry="0.4" fill="currentColor"></rect><rect x="24.1" y="12.1" width="0.8" height="0.8" rx="0.4" ry="0.4" fill="currentColor"></rect><rect x="9.1" y="13.1" width="0.8" height="0.8" rx="0.4" ry="0.4" fill="currentColor"></rect><rect x="10.1" y="13.1" width="0.8" height="0.8" rx="0.4" ry="0.4" fill="currentColor"></rect><rect x="12.1" y="13.1" width="0.8" height="0.8" rx="0.4" ry="0.4" fill="currentColor"></rect><rect x="15.1" y="13.1" width="0.8" height="0.8" rx="0.4" ry="0.4" fill="currentColor"></rect><rect x="16.1" y="13.1" width="0.8" height="0.8" rx="0.4" ry="0.4" fill="currentColor"></rect><rect x="17.1" y="13.1" width="0.8" height="0.8" rx="0.4" ry="0.4" fill="currentColor"></rect><rect x="18.1" y="13.1" width="0.8" height="0.8" rx="0.4" ry="0.4" fill="currentColor"></rect><rect x="19.1" y="13.1" width="0.8" height="0.8" rx="0.4" ry="0.4" fill="currentColor"></rect><rect x="20.1" y="13.1" width="0.8" height="0.8" rx="0.4" ry="0.4" fill="currentColor"></rect><rect x="24.1" y="13.1" width="0.8" height="0.8" rx="0.4" ry="0.4" fill="currentColor"></rect><rect x="1.1" y="14.1" width="0.8" height="0.8" rx="0.4" ry="0.4" fill="currentColor"></rect><rect x="3.1" y="14.1" width="0.8" height="0.8" rx="0.4" ry="0.4" fill="currentColor"></rect><rect x="6.1" y="14.1" width="0.8" height="0.8" rx="0.4" ry="0.4" fill="currentColor"></rect><rect x="7.1" y="14.1" width="0.8" height="0.8" rx="0.4" ry="0.4" fill="currentColor"></rect><rect x="9.1" y="14.1" width="0.8" height="0.8" rx="0.4" ry="0.4" fill="currentColor"></rect><rect x="10.1" y="14.1" width="0.8" height="0.8" rx="0.4" ry="0.4" fill="currentColor"></rect><rect x="12.1" y="14.1" width="0.8" height="0.8" rx="0.4" ry="0.4" fill="currentColor"></rect><rect x="16.1" y="14.1" width="0.8" height="0.8" rx="0.4" ry="0.4" fill="currentColor"></rect><rect x="17.1" y="14.1" width="0.8" height="0.8" rx="0.4" ry="0.4" fill="currentColor"></rect><rect x="18.1" y="14.1" width="0.8" height="0.8" rx="0.4" ry="0.4" fill="currentColor"></rect><rect x="20.1" y="14.1" width="0.8" height="0.8" rx="0.4" ry="0.4" fill="currentColor"></rect><rect x="22.1" y="14.1" width="0.8" height="0.8" rx="0.4" ry="0.4" fill="currentColor"></rect><rect x="23.1" y="14.1" width="0.8" height="0.8" rx="0.4" ry="0.4" fill="currentColor"></rect><rect x="0.09999999999999998" y="15.1" width="0.8" height="0.8" rx="0.4" ry="0.4" fill="currentColor"></rect><rect x="2.1" y="15.1" width="0.8" height="0.8" rx="0.4" ry="0.4" fill="currentColor"></rect><rect x="3.1" y="15.1" width="0.8" height="0.8" rx="0.4" ry="0.4" fill="currentColor"></rect><rect x="4.1" y="15.1" width="0.8" height="0.8" rx="0.4" ry="0.4" fill="currentColor"></rect><rect x="19.1" y="15.1" width="0.8" height="0.8" rx="0.4" ry="0.4" fill="currentColor"></rect><rect x="20.1" y="15.1" width="0.8" height="0.8" rx="0.4" ry="0.4" fill="currentColor"></rect><rect x="24.1" y="15.1" width="0.8" height="0.8" rx="0.4" ry="0.4" fill="currentColor"></rect><rect x="2.1" y="16.1" width="0.8" height="0.8" rx="0.4" ry="0.4" fill="currentColor"></rect><rect x="6.1" y="16.1" width="0.8" height="0.8" rx="0.4" ry="0.4" fill="currentColor"></rect><rect x="7.1" y="16.1" width="0.8" height="0.8" rx="0.4" ry="0.4" fill="currentColor"></rect><rect x="10.1" y="16.1" width="0.8" height="0.8" rx="0.4" ry="0.4" fill="currentColor"></rect><rect x="11.1" y="16.1" width="0.8" height="0.8" rx="0.4" ry="0.4" fill="currentColor"></rect><rect x="12.1" y="16.1" width="0.8" height="0.8" rx="0.4" ry="0.4" fill="currentColor"></rect><rect x="13.1" y="16.1" width="0.8" height="0.8" rx="0.4" ry="0.4" fill="currentColor"></rect><rect x="16.1" y="16.1" width="0.8" height="0.8" rx="0.4" ry="0.4" fill="currentColor"></rect><rect x="17.1" y="16.1" width="0.8" height="0.8" rx="0.4" ry="0.4" fill="currentColor"></rect><rect x="18.1" y="16.1" width="0.8" height="0.8" rx="0.4" ry="0.4" fill="currentColor"></rect><rect x="19.1" y="16.1" width="0.8" height="0.8" rx="0.4" ry="0.4" fill="currentColor"></rect><rect x="20.1" y="16.1" width="0.8" height="0.8" rx="0.4" ry="0.4" fill="currentColor"></rect><rect x="21.1" y="16.1" width="0.8" height="0.8" rx="0.4" ry="0.4" fill="currentColor"></rect><rect x="22.1" y="16.1" width="0.8" height="0.8" rx="0.4" ry="0.4" fill="currentColor"></rect><rect x="23.1" y="16.1" width="0.8" height="0.8" rx="0.4" ry="0.4" fill="currentColor"></rect><rect x="24.1" y="16.1" width="0.8" height="0.8" rx="0.4" ry="0.4" fill="currentColor"></rect><rect x="8.1" y="17.1" width="0.8" height="0.8" rx="0.4" ry="0.4" fill="currentColor"></rect><rect x="9.1" y="17.1" width="0.8" height="0.8" rx="0.4" ry="0.4" fill="currentColor"></rect><rect x="10.1" y="17.1" width="0.8" height="0.8" rx="0.4" ry="0.4" fill="currentColor"></rect><rect x="11.1" y="17.1" width="0.8" height="0.8" rx="0.4" ry="0.4" fill="currentColor"></rect><rect x="12.1" y="17.1" width="0.8" height="0.8" rx="0.4" ry="0.4" fill="currentColor"></rect><rect x="14.1" y="17.1" width="0.8" height="0.8" rx="0.4" ry="0.4" fill="currentColor"></rect><rect x="15.1" y="17.1" width="0.8" height="0.8" rx="0.4" ry="0.4" fill="currentColor"></rect><rect x="16.1" y="17.1" width="0.8" height="0.8" rx="0.4" ry="0.4" fill="currentColor"></rect><rect x="20.1" y="17.1" width="0.8" height="0.8" rx="0.4" ry="0.4" fill="currentColor"></rect><rect x="22.1" y="17.1" width="0.8" height="0.8" rx="0.4" ry="0.4" fill="currentColor"></rect><rect x="24.1" y="17.1" width="0.8" height="0.8" rx="0.4" ry="0.4" fill="currentColor"></rect><rect x="9.1" y="18.1" width="0.8" height="0.8" rx="0.4" ry="0.4" fill="currentColor"></rect><rect x="12.1" y="18.1" width="0.8" height="0.8" rx="0.4" ry="0.4" fill="currentColor"></rect><rect x="16.1" y="18.1" width="0.8" height="0.8" rx="0.4" ry="0.4" fill="currentColor"></rect><rect x="18.1" y="18.1" width="0.8" height="0.8" rx="0.4" ry="0.4" fill="currentColor"></rect><rect x="20.1" y="18.1" width="0.8" height="0.8" rx="0.4" ry="0.4" fill="currentColor"></rect><rect x="22.1" y="18.1" width="0.8" height="0.8" rx="0.4" ry="0.4" fill="currentColor"></rect><rect x="23.1" y="18.1" width="0.8" height="0.8" rx="0.4" ry="0.4" fill="currentColor"></rect><rect x="24.1" y="18.1" width="0.8" height="0.8" rx="0.4" ry="0.4" fill="currentColor"></rect><rect x="14.1" y="19.1" width="0.8" height="0.8" rx="0.4" ry="0.4" fill="currentColor"></rect><rect x="15.1" y="19.1" width="0.8" height="0.8" rx="0.4" ry="0.4" fill="currentColor"></rect><rect x="16.1" y="19.1" width="0.8" height="0.8" rx="0.4" ry="0.4" fill="currentColor"></rect><rect x="20.1" y="19.1" width="0.8" height="0.8" rx="0.4" ry="0.4" fill="currentColor"></rect><rect x="23.1" y="19.1" width="0.8" height="0.8" rx="0.4" ry="0.4" fill="currentColor"></rect><rect x="11.1" y="20.1" width="0.8" height="0.8" rx="0.4" ry="0.4" fill="currentColor"></rect><rect x="16.1" y="20.1" width="0.8" height="0.8" rx="0.4" ry="0.4" fill="currentColor"></rect><rect x="17.1" y="20.1" width="0.8" height="0.8" rx="0.4" ry="0.4" fill="currentColor"></rect><rect x="18.1" y="20.1" width="0.8" height="0.8" rx="0.4" ry="0.4" fill="currentColor"></rect><rect x="19.1" y="20.1" width="0.8" height="0.8" rx="0.4" ry="0.4" fill="currentColor"></rect><rect x="20.1" y="20.1" width="0.8" height="0.8" rx="0.4" ry="0.4" fill="currentColor"></rect><rect x="21.1" y="20.1" width="0.8" height="0.8" rx="0.4" ry="0.4" fill="currentColor"></rect><rect x="23.1" y="20.1" width="0.8" height="0.8" rx="0.4" ry="0.4" fill="currentColor"></rect><rect x="24.1" y="20.1" width="0.8" height="0.8" rx="0.4" ry="0.4" fill="currentColor"></rect><rect x="8.1" y="21.1" width="0.8" height="0.8" rx="0.4" ry="0.4" fill="currentColor"></rect><rect x="10.1" y="21.1" width="0.8" height="0.8" rx="0.4" ry="0.4" fill="currentColor"></rect><rect x="11.1" y="21.1" width="0.8" height="0.8" rx="0.4" ry="0.4" fill="currentColor"></rect><rect x="13.1" y="21.1" width="0.8" height="0.8" rx="0.4" ry="0.4" fill="currentColor"></rect><rect x="14.1" y="21.1" width="0.8" height="0.8" rx="0.4" ry="0.4" fill="currentColor"></rect><rect x="17.1" y="21.1" width="0.8" height="0.8" rx="0.4" ry="0.4" fill="currentColor"></rect><rect x="18.1" y="21.1" width="0.8" height="0.8" rx="0.4" ry="0.4" fill="currentColor"></rect><rect x="20.1" y="21.1" width="0.8" height="0.8" rx="0.4" ry="0.4" fill="currentColor"></rect><rect x="21.1" y="21.1" width="0.8" height="0.8" rx="0.4" ry="0.4" fill="currentColor"></rect><rect x="22.1" y="21.1" width="0.8" height="0.8" rx="0.4" ry="0.4" fill="currentColor"></rect><rect x="23.1" y="21.1" width="0.8" height="0.8" rx="0.4" ry="0.4" fill="currentColor"></rect><rect x="24.1" y="21.1" width="0.8" height="0.8" rx="0.4" ry="0.4" fill="currentColor"></rect><rect x="8.1" y="22.1" width="0.8" height="0.8" rx="0.4" ry="0.4" fill="currentColor"></rect><rect x="9.1" y="22.1" width="0.8" height="0.8" rx="0.4" ry="0.4" fill="currentColor"></rect><rect x="11.1" y="22.1" width="0.8" height="0.8" rx="0.4" ry="0.4" fill="currentColor"></rect><rect x="14.1" y="22.1" width="0.8" height="0.8" rx="0.4" ry="0.4" fill="currentColor"></rect><rect x="15.1" y="22.1" width="0.8" height="0.8" rx="0.4" ry="0.4" fill="currentColor"></rect><rect x="18.1" y="22.1" width="0.8" height="0.8" rx="0.4" ry="0.4" fill="currentColor"></rect><rect x="20.1" y="22.1" width="0.8" height="0.8" rx="0.4" ry="0.4" fill="currentColor"></rect><rect x="22.1" y="22.1" width="0.8" height="0.8" rx="0.4" ry="0.4" fill="currentColor"></rect><rect x="23.1" y="22.1" width="0.8" height="0.8" rx="0.4" ry="0.4" fill="currentColor"></rect><rect x="8.1" y="23.1" width="0.8" height="0.8" rx="0.4" ry="0.4" fill="currentColor"></rect><rect x="10.1" y="23.1" width="0.8" height="0.8" rx="0.4" ry="0.4" fill="currentColor"></rect><rect x="11.1" y="23.1" width="0.8" height="0.8" rx="0.4" ry="0.4" fill="currentColor"></rect><rect x="13.1" y="23.1" width="0.8" height="0.8" rx="0.4" ry="0.4" fill="currentColor"></rect><rect x="14.1" y="23.1" width="0.8" height="0.8" rx="0.4" ry="0.4" fill="currentColor"></rect><rect x="15.1" y="23.1" width="0.8" height="0.8" rx="0.4" ry="0.4" fill="currentColor"></rect><rect x="18.1" y="23.1" width="0.8" height="0.8" rx="0.4" ry="0.4" fill="currentColor"></rect><rect x="20.1" y="23.1" width="0.8" height="0.8" rx="0.4" ry="0.4" fill="currentColor"></rect><rect x="22.1" y="23.1" width="0.8" height="0.8" rx="0.4" ry="0.4" fill="currentColor"></rect><rect x="8.1" y="24.1" width="0.8" height="0.8" rx="0.4" ry="0.4" fill="currentColor"></rect><rect x="11.1" y="24.1" width="0.8" height="0.8" rx="0.4" ry="0.4" fill="currentColor"></rect><rect x="13.1" y="24.1" width="0.8" height="0.8" rx="0.4" ry="0.4" fill="currentColor"></rect><rect x="14.1" y="24.1" width="0.8" height="0.8" rx="0.4" ry="0.4" fill="currentColor"></rect><rect x="17.1" y="24.1" width="0.8" height="0.8" rx="0.4" ry="0.4" fill="currentColor"></rect><rect x="18.1" y="24.1" width="0.8" height="0.8" rx="0.4" ry="0.4" fill="currentColor"></rect><rect x="19.1" y="24.1" width="0.8" height="0.8" rx="0.4" ry="0.4" fill="currentColor"></rect><rect x="20.1" y="24.1" width="0.8" height="0.8" rx="0.4" ry="0.4" fill="currentColor"></rect><rect x="21.1" y="24.1" width="0.8" height="0.8" rx="0.4" ry="0.4" fill="currentColor"></rect><rect x="22.1" y="24.1" width="0.8" height="0.8" rx="0.4" ry="0.4" fill="currentColor"></rect><rect x="23.1" y="24.1" width="0.8" height="0.8" rx="0.4" ry="0.4" fill="currentColor"></rect><rect x="24.1" y="24.1" width="0.8" height="0.8" rx="0.4" ry="0.4" fill="currentColor"></rect></svg>